<!DOCTYPE svg PUBLIC "-//W3C//DTD SVG 20010904//EN" "http://www.w3.org/TR/2001/REC-SVG-20010904/DTD/svg10.dtd">
<svg version="1.0" xmlns="http://www.w3.org/2000/svg" width="200px" height="200px" viewBox="0 0 2000 2000" preserveAspectRatio="xMidYMid meet">
<g id="layer101" fill="#808080" stroke="none">
 <path d="M117 1882 c-15 -17 -17 -70 -17 -555 l0 -536 22 -15 c52 -37 66 -30 479 244 307 205 396 259 412 254 20 -6 252 -159 639 -421 148 -100 175 -109 222 -72 l26 20 0 533 c0 504 -1 534 -18 549 -17 16 -93 17 -884 17 -825 0 -866 -1 -881 -18z"/>
 <path d="M690 905 c-151 -102 -278 -191 -282 -198 -4 -6 -8 -138 -8 -293 0 -260 1 -282 18 -297 17 -15 72 -17 584 -17 535 0 566 1 581 18 15 16 17 52 17 299 0 263 -1 281 -19 297 -11 10 -140 98 -287 197 -200 133 -276 179 -299 179 -22 0 -99 -46 -305 -185z m338 -197 l3 -108 103 0 c82 0 106 -3 117 -16 9 -11 10 -20 2 -32 -8 -14 -30 -18 -116 -20 l-106 -3 -3 -107 c-3 -107 -3 -107 -28 -107 -25 0 -25 0 -28 108 l-3 107 -103 0 c-82 0 -106 3 -117 16 -9 11 -10 20 -2 32 8 14 30 18 117 20 l106 3 0 103 c0 56 3 106 7 110 4 4 16 6 28 4 18 -3 20 -11 23 -110z"/>
 </g>

</svg>